<svg xmlns="http://www.w3.org/2000/svg" viewBox="0 0 399 145.486"><defs><style>.a{fill:#fff;}</style></defs><title>MultasCuliacan</title><rect class="a" x="29.351" y="27.233" width="17.458" height="88.455" rx="6.826" ry="6.826"/><rect class="a" x="116.643" y="27.815" width="17.458" height="88.455" rx="6.826" ry="6.826"/><rect class="a" x="53.793" y="42.363" width="17.458" height="40.736" rx="6.826" ry="6.826"/><rect class="a" x="95.693" y="42.945" width="17.458" height="40.736" rx="6.826" ry="6.826"/><rect class="a" x="74.743" y="62.149" width="17.458" height="41.318" rx="6.826" ry="6.826"/><path class="a" d="M197.782,64.356v47.229H184.79v-5.618a18.17,18.17,0,0,1-6.5,4.7,20.449,20.449,0,0,1-8.164,1.624q-9.306,0-14.748-5.354t-5.443-15.89V64.356h13.7V89.024q0,11.414,9.569,11.412a10.283,10.283,0,0,0,7.9-3.2q2.984-3.2,2.984-9.524V64.356Z"/><path class="a" d="M210.511,46.448h13.7v65.138h-13.7Z"/><path class="a" d="M270.819,109.3a14.067,14.067,0,0,1-4.96,2.238,25.115,25.115,0,0,1-6.189.746q-8.427,0-13.036-4.3t-4.609-12.641v-19.4h-7.286V65.41h7.286V53.91h13.7v11.5h11.764V75.944H255.72V95.17a6.444,6.444,0,0,0,1.536,4.608A5.687,5.687,0,0,0,261.6,101.4a8.8,8.8,0,0,0,5.53-1.756Z"/><path class="a" d="M314.449,68.878q5.88,5.224,5.882,15.758v26.95H307.514V105.7q-3.863,6.584-14.4,6.584a22.332,22.332,0,0,1-9.437-1.844,14.059,14.059,0,0,1-6.1-5.091,13.246,13.246,0,0,1-2.107-7.375,12.306,12.306,0,0,1,4.96-10.358q4.958-3.773,15.319-3.774h10.885a8.731,8.731,0,0,0-2.721-6.892q-2.723-2.414-8.164-2.414a23.829,23.829,0,0,0-7.418,1.185,19.635,19.635,0,0,0-6.189,3.2l-4.916-9.568a29.7,29.7,0,0,1,9.262-4.214,41.509,41.509,0,0,1,11.1-1.492Q308.567,63.654,314.449,68.878Zm-11.676,32.568a8.888,8.888,0,0,0,3.862-4.784V91.834h-9.393q-8.427,0-8.428,5.53a4.924,4.924,0,0,0,2.063,4.17,9.291,9.291,0,0,0,5.663,1.536A11.916,11.916,0,0,0,302.773,101.446Z"/><path class="a" d="M337.1,110.84a30.02,30.02,0,0,1-8.954-3.644l4.564-9.832a28.663,28.663,0,0,0,7.638,3.292,31.978,31.978,0,0,0,8.779,1.273q8.691,0,8.69-4.3,0-2.019-2.37-2.9a35.238,35.238,0,0,0-7.286-1.492,70.079,70.079,0,0,1-9.569-2.019,14.851,14.851,0,0,1-6.54-4.038q-2.766-2.9-2.766-8.253a12.927,12.927,0,0,1,2.59-7.944,16.668,16.668,0,0,1,7.55-5.4,32.249,32.249,0,0,1,11.72-1.932,46,46,0,0,1,9.964,1.1,27.9,27.9,0,0,1,8.208,3.028l-4.564,9.744a27.269,27.269,0,0,0-13.607-3.512,13.839,13.839,0,0,0-6.584,1.229,3.614,3.614,0,0,0-2.194,3.16,3.136,3.136,0,0,0,2.37,3.072,41.845,41.845,0,0,0,7.55,1.668,81.184,81.184,0,0,1,9.48,2.063,14.248,14.248,0,0,1,6.408,3.994q2.72,2.9,2.722,8.076a12.469,12.469,0,0,1-2.634,7.813,16.812,16.812,0,0,1-7.681,5.311,34.241,34.241,0,0,1-11.983,1.888A45.864,45.864,0,0,1,337.1,110.84Z"/><path class="a" d="M156.77,144.161a9.747,9.747,0,0,1-3.778-3.65,10.683,10.683,0,0,1,0-10.464,9.721,9.721,0,0,1,3.792-3.649,11.1,11.1,0,0,1,5.417-1.326,11.3,11.3,0,0,1,4.277.785,8.755,8.755,0,0,1,3.307,2.324l-1.854,1.8a7.436,7.436,0,0,0-5.617-2.366,8.131,8.131,0,0,0-4.02,1,7.226,7.226,0,0,0-2.808,2.751,8.1,8.1,0,0,0,0,7.841,7.226,7.226,0,0,0,2.808,2.751,8.131,8.131,0,0,0,4.02,1,7.451,7.451,0,0,0,5.617-2.4l1.854,1.8a8.871,8.871,0,0,1-3.322,2.338,11.236,11.236,0,0,1-4.291.8A11.015,11.015,0,0,1,156.77,144.161Z"/><path class="a" d="M187.064,130.147v15.112H184.47v-2.281a5.506,5.506,0,0,1-2.181,1.81,6.807,6.807,0,0,1-2.951.641,6.592,6.592,0,0,1-4.761-1.668,6.505,6.505,0,0,1-1.74-4.918v-8.7h2.737v8.383a4.693,4.693,0,0,0,1.055,3.322,3.94,3.94,0,0,0,3.023,1.126,4.509,4.509,0,0,0,3.421-1.312,5.145,5.145,0,0,0,1.254-3.706v-7.813Z"/><path class="a" d="M192.282,124.1h2.737v21.157h-2.737Z"/><path class="a" d="M200.279,126.725a1.679,1.679,0,0,1-.528-1.254,1.727,1.727,0,0,1,.528-1.269,1.8,1.8,0,0,1,1.326-.528,1.86,1.86,0,0,1,1.326.5,1.642,1.642,0,0,1,.528,1.241,1.765,1.765,0,0,1-.528,1.3,1.8,1.8,0,0,1-1.326.528A1.822,1.822,0,0,1,200.279,126.725Zm-.043,3.421h2.737v15.112h-2.737Z"/><path class="a" d="M218.5,131.544a5.944,5.944,0,0,1,1.668,4.59v9.124h-2.595v-2a4.321,4.321,0,0,1-1.953,1.611,7.45,7.45,0,0,1-3.008.556,6.3,6.3,0,0,1-4.063-1.226,4.215,4.215,0,0,1-.071-6.43,7.171,7.171,0,0,1,4.619-1.212h4.334v-.542a3.491,3.491,0,0,0-1.027-2.709,4.332,4.332,0,0,0-3.023-.941,8.02,8.02,0,0,0-2.623.442A6.783,6.783,0,0,0,208.59,134l-1.14-2.052a8.3,8.3,0,0,1,2.794-1.44,11.7,11.7,0,0,1,3.451-.5A6.835,6.835,0,0,1,218.5,131.544Zm-2.723,11.077a4,4,0,0,0,1.654-1.981v-2.11h-4.22q-3.479,0-3.478,2.338a2.114,2.114,0,0,0,.883,1.8,4.037,4.037,0,0,0,2.452.656A5.082,5.082,0,0,0,215.776,142.621Z"/><path class="a" d="M227.793,144.431a7.3,7.3,0,0,1-2.837-2.751,8.218,8.218,0,0,1,0-7.955,7.207,7.207,0,0,1,2.837-2.737,8.494,8.494,0,0,1,4.12-.984,7.909,7.909,0,0,1,3.663.827,5.89,5.89,0,0,1,2.5,2.395l-2.082,1.34a4.652,4.652,0,0,0-1.768-1.625,5.046,5.046,0,0,0-2.338-.542,5.406,5.406,0,0,0-2.666.656,4.679,4.679,0,0,0-1.854,1.867,6.162,6.162,0,0,0,0,5.588,4.672,4.672,0,0,0,1.854,1.868,5.406,5.406,0,0,0,2.666.656,5.046,5.046,0,0,0,2.338-.542,4.648,4.648,0,0,0,1.768-1.625l2.082,1.311a5.975,5.975,0,0,1-2.5,2.41,7.793,7.793,0,0,1-3.663.841A8.391,8.391,0,0,1,227.793,144.431Z"/><path class="a" d="M251.915,131.544a5.944,5.944,0,0,1,1.668,4.59v9.124h-2.595v-2a4.321,4.321,0,0,1-1.953,1.611,7.45,7.45,0,0,1-3.008.556,6.3,6.3,0,0,1-4.063-1.226,4.215,4.215,0,0,1-.071-6.43,7.171,7.171,0,0,1,4.619-1.212h4.334v-.542a3.491,3.491,0,0,0-1.027-2.709,4.332,4.332,0,0,0-3.023-.941,8.02,8.02,0,0,0-2.623.442A6.783,6.783,0,0,0,242.007,134l-1.14-2.052a8.3,8.3,0,0,1,2.794-1.44,11.7,11.7,0,0,1,3.451-.5A6.835,6.835,0,0,1,251.915,131.544Zm-2.723,11.077a4,4,0,0,0,1.654-1.981v-2.11h-4.22q-3.479,0-3.478,2.338a2.114,2.114,0,0,0,.883,1.8,4.037,4.037,0,0,0,2.452.656A5.082,5.082,0,0,0,249.192,142.621Zm-.143-18.376h3.479l-4.79,3.706h-2.566Z"/><path class="a" d="M271.3,131.672a6.563,6.563,0,0,1,1.7,4.89v8.7h-2.737v-8.382a4.638,4.638,0,0,0-1.055-3.307,3.966,3.966,0,0,0-3.023-1.112,4.71,4.71,0,0,0-3.507,1.3,5.072,5.072,0,0,0-1.283,3.721v7.784h-2.737V130.147h2.623v2.282a5.32,5.32,0,0,1,2.238-1.8,7.822,7.822,0,0,1,3.207-.627A6.245,6.245,0,0,1,271.3,131.672Z"/><path class="a" d="M392,145H298a7,7,0,0,1-7-7h0a7,7,0,0,1,7-7h80a7,7,0,0,0,7-7V21a7,7,0,0,0-7-7H21a7,7,0,0,0-7,7V124a7,7,0,0,0,7,7H127a7,7,0,0,1,7,7h0a7,7,0,0,1-7,7H7a7,7,0,0,1-7-7V7A7,7,0,0,1,7,0H392a7,7,0,0,1,7,7V138A7,7,0,0,1,392,145Z"/></svg>